# xmcd
#
# Track frame offsets:
#	150
#	14377
#	28065
#	41307
#	55600
#	67365
#	77735
#	90887
#	105812
#	120492
#	132142
#	147980
#	160340
#	173502
#	188092
#	202440
#	216170
#	230077
#	243592
#	257115
#	271365
#	284660
#	297897
#	311960
#	325370
#
# Disc length: 4511 seconds
#
# Revision: 1
# Processed by: cddbd v1.5.1PL0 Copyright (c) Steve Scherf et al.
# Submitted via: audiograbber 1.83.01
#
DISCID=76119d19
DTITLE=Female Blues Singers - Complete Recorded Works - 1996 - Vol 6: E-F-G  (1
DTITLE=922-1928) DOCD-5510
DYEAR=1996
DGENRE=Blues
TTITLE0=Macon Blues
TTITLE1=Fat Mouth Blues
TTITLE2=I'm So Glad Trouble Don't Last Always
TTITLE3=Somebody's Knocking At Your Door
TTITLE4=You Can't Guess How Good It Is ('Till You Try It For Yourself)
TTITLE5=Those Creeping Sneaking Blues
TTITLE6=I Need A Good Man Bad
TTITLE7=I Can't Be Worried Long
TTITLE8=You Used To Be Sugar Blues
TTITLE9=Blues And All By Myself
TTITLE10=Strange Woman's Dream
TTITLE11=Sweet Baby, Goodbye!
TTITLE12=Chicago Blues
TTITLE13=No One Can Toddle Like My Cousin Sue
TTITLE14=Awful Moanin' Blues
TTITLE15=Ramblin' (Till I Find My Lovin' Man)
TTITLE16=Four Flushing Papa (You've Got To Play Me Straight)
TTITLE17=Gonna Get Somebody's Daddy (Just Wait And See)
TTITLE18=A Little Kind Treatment (Is Exactly What I Need)
TTITLE19=Broadway Blues
TTITLE20=Moanful Wailin' Blues
TTITLE21=Florida Flood Blues
TTITLE22=Breath And Britches Blues
TTITLE23=Mean Old Bed Bug Blues
TTITLE24=Loud And Wrong
EXTD=Document Records, Austria
EXTT0=
EXTT1=
EXTT2=
EXTT3=
EXTT4=
EXTT5=
EXTT6=
EXTT7=
EXTT8=
EXTT9=
EXTT10=
EXTT11=
EXTT12=
EXTT13=
EXTT14=
EXTT15=
EXTT16=
EXTT17=
EXTT18=
EXTT19=
EXTT20=
EXTT21=
EXTT22=
EXTT23=
EXTT24=
PLAYORDER=
